<svg width="16" height="16" viewBox="0 0 16 16" fill="none" xmlns="http://www.w3.org/2000/svg">
<g clip-path="url(#clip0_206_1863)">
<path d="M6.10203 3.60556C6.94646 2.09073 7.36868 1.33331 7.99992 1.33331C8.63116 1.33331 9.05338 2.09073 9.89781 3.60556L10.1163 3.99747C10.3562 4.42794 10.4762 4.64317 10.6633 4.78518C10.8504 4.9272 11.0834 4.97991 11.5493 5.08535L11.9736 5.18133C13.6133 5.55235 14.4332 5.73786 14.6283 6.36513C14.8234 6.99241 14.2644 7.64603 13.1465 8.95326L12.8573 9.29146C12.5396 9.66294 12.3808 9.84867 12.3093 10.0785C12.2379 10.3082 12.2619 10.5561 12.3099 11.0517L12.3537 11.5029C12.5227 13.247 12.6072 14.1191 12.0965 14.5068C11.5858 14.8945 10.8181 14.541 9.2828 13.8341L8.8856 13.6512C8.4493 13.4503 8.23115 13.3499 7.99992 13.3499C7.76868 13.3499 7.55054 13.4503 7.11424 13.6512L6.71703 13.8341C5.1817 14.541 4.41404 14.8945 3.90335 14.5068C3.39267 14.1191 3.47717 13.247 3.64618 11.5029L3.68991 11.0517C3.73794 10.5561 3.76195 10.3082 3.69049 10.0785C3.61904 9.84867 3.4602 9.66294 3.14253 9.29146L2.85332 8.95326C1.73542 7.64603 1.17647 6.99241 1.37153 6.36513C1.5666 5.73786 2.38649 5.55235 4.02628 5.18133L4.45051 5.08535C4.91649 4.97991 5.14947 4.9272 5.33655 4.78518C5.52362 4.64317 5.6436 4.42794 5.88356 3.99747L6.10203 3.60556Z" fill="#FDF41A" stroke="#FDF41A" stroke-width="1.5"/>
</g>
<defs>
<clipPath id="clip0_206_1863">
<rect width="16" height="16" rx="5" fill="white"/>
</clipPath>
</defs>
</svg>
